<?xml version="1.0" encoding="UTF-8" standalone="no"?>
<!DOCTYPE svg PUBLIC "-//W3C//DTD SVG 1.1//EN" "http://www.w3.org/Graphics/SVG/1.1/DTD/svg11.dtd">
<svg width="100%" height="100%" viewBox="0 0 894 246" version="1.1" xmlns="http://www.w3.org/2000/svg" xmlns:xlink="http://www.w3.org/1999/xlink" xml:space="preserve" xmlns:serif="http://www.serif.com/" style="fill-rule:evenodd;clip-rule:evenodd;stroke-linejoin:round;stroke-miterlimit:2;">
    <g transform="matrix(1,0,0,1,-455,-671)">
        <g transform="matrix(0.833183,0,0,0.833183,87.8969,368.594)">
            <g transform="matrix(15.5569,0,0,15.3208,-12916.9,-6343.75)">
                <g transform="matrix(12,0,0,12,880.926,456.524)">
                    <path d="M0.06,-0L0.06,-0.729L0.328,-0.729C0.378,-0.729 0.421,-0.724 0.457,-0.715C0.492,-0.705 0.521,-0.692 0.543,-0.675C0.565,-0.658 0.582,-0.637 0.592,-0.613C0.602,-0.589 0.607,-0.562 0.607,-0.532C0.607,-0.515 0.605,-0.499 0.6,-0.484C0.595,-0.469 0.588,-0.455 0.578,-0.442C0.568,-0.428 0.555,-0.416 0.54,-0.405C0.524,-0.394 0.505,-0.385 0.483,-0.377C0.531,-0.365 0.567,-0.346 0.59,-0.32C0.612,-0.294 0.624,-0.261 0.624,-0.22C0.624,-0.189 0.618,-0.16 0.606,-0.133C0.594,-0.106 0.576,-0.083 0.553,-0.063C0.53,-0.043 0.501,-0.028 0.468,-0.017C0.434,-0.006 0.395,-0 0.351,-0L0.06,-0ZM0.229,-0.309L0.229,-0.128L0.348,-0.128C0.37,-0.128 0.389,-0.13 0.403,-0.136C0.417,-0.142 0.428,-0.149 0.436,-0.158C0.444,-0.167 0.45,-0.177 0.453,-0.189C0.456,-0.2 0.457,-0.211 0.457,-0.223C0.457,-0.236 0.455,-0.248 0.452,-0.259C0.448,-0.27 0.442,-0.279 0.434,-0.286C0.425,-0.293 0.414,-0.299 0.4,-0.303C0.386,-0.307 0.368,-0.309 0.347,-0.309L0.229,-0.309ZM0.229,-0.422L0.317,-0.422C0.336,-0.422 0.353,-0.423 0.368,-0.426C0.383,-0.429 0.395,-0.433 0.406,-0.44C0.416,-0.447 0.424,-0.456 0.43,-0.468C0.435,-0.479 0.438,-0.494 0.438,-0.512C0.438,-0.529 0.436,-0.543 0.432,-0.555C0.427,-0.566 0.421,-0.576 0.412,-0.583C0.403,-0.59 0.391,-0.595 0.377,-0.598C0.363,-0.6 0.347,-0.602 0.328,-0.602L0.229,-0.602L0.229,-0.422Z" style="fill-rule:nonzero;"/>
                </g>
                <g transform="matrix(12,0,0,12,888.678,456.524)">
                    <path d="M0.418,-0C0.403,-0 0.392,-0.002 0.385,-0.006C0.377,-0.01 0.371,-0.018 0.366,-0.031L0.355,-0.06C0.342,-0.049 0.33,-0.039 0.318,-0.031C0.306,-0.022 0.293,-0.015 0.28,-0.009C0.267,-0.003 0.254,0.001 0.239,0.004C0.225,0.007 0.209,0.008 0.191,0.008C0.167,0.008 0.146,0.005 0.127,-0.001C0.107,-0.007 0.091,-0.017 0.077,-0.029C0.064,-0.041 0.053,-0.055 0.046,-0.073C0.039,-0.091 0.035,-0.112 0.035,-0.135C0.035,-0.153 0.04,-0.172 0.049,-0.192C0.058,-0.211 0.075,-0.228 0.098,-0.244C0.121,-0.26 0.152,-0.273 0.191,-0.284C0.23,-0.295 0.279,-0.301 0.338,-0.302L0.338,-0.324C0.338,-0.354 0.332,-0.376 0.319,-0.39C0.307,-0.403 0.289,-0.41 0.266,-0.41C0.248,-0.41 0.233,-0.408 0.221,-0.404C0.209,-0.4 0.199,-0.396 0.19,-0.391C0.181,-0.386 0.172,-0.381 0.163,-0.377C0.154,-0.373 0.144,-0.371 0.132,-0.371C0.121,-0.371 0.112,-0.374 0.105,-0.379C0.097,-0.384 0.091,-0.39 0.087,-0.398L0.059,-0.447C0.09,-0.474 0.125,-0.495 0.163,-0.508C0.201,-0.522 0.242,-0.529 0.286,-0.529C0.317,-0.529 0.346,-0.523 0.371,-0.513C0.396,-0.503 0.417,-0.489 0.435,-0.471C0.452,-0.453 0.466,-0.431 0.475,-0.406C0.484,-0.381 0.489,-0.354 0.489,-0.324L0.489,-0L0.418,-0ZM0.24,-0.095C0.26,-0.094 0.278,-0.098 0.293,-0.105C0.308,-0.112 0.323,-0.123 0.338,-0.139L0.338,-0.211C0.307,-0.21 0.282,-0.207 0.262,-0.203C0.242,-0.199 0.226,-0.194 0.214,-0.188C0.202,-0.182 0.194,-0.175 0.19,-0.168C0.185,-0.16 0.183,-0.152 0.183,-0.143C0.183,-0.125 0.188,-0.112 0.198,-0.105C0.207,-0.098 0.221,-0.094 0.24,-0.095Z" style="fill-rule:nonzero;"/>
                </g>
                <g transform="matrix(12,0,0,12,895.026,456.524)">
                    <path d="M0.434,-0.396C0.429,-0.39 0.425,-0.385 0.421,-0.382C0.416,-0.379 0.41,-0.377 0.402,-0.377C0.394,-0.377 0.387,-0.379 0.381,-0.383C0.375,-0.386 0.368,-0.39 0.361,-0.395C0.353,-0.399 0.344,-0.403 0.334,-0.407C0.323,-0.411 0.31,-0.413 0.295,-0.413C0.276,-0.413 0.26,-0.409 0.246,-0.402C0.232,-0.395 0.221,-0.385 0.212,-0.372C0.203,-0.359 0.196,-0.343 0.192,-0.324C0.187,-0.305 0.185,-0.284 0.185,-0.261C0.185,-0.211 0.195,-0.173 0.214,-0.146C0.233,-0.119 0.259,-0.106 0.293,-0.106C0.311,-0.106 0.325,-0.108 0.336,-0.113C0.346,-0.117 0.355,-0.122 0.363,-0.128C0.37,-0.133 0.377,-0.138 0.383,-0.143C0.389,-0.148 0.397,-0.15 0.406,-0.15C0.418,-0.15 0.428,-0.146 0.434,-0.137L0.479,-0.081C0.463,-0.063 0.446,-0.048 0.429,-0.036C0.411,-0.025 0.393,-0.016 0.374,-0.009C0.356,-0.003 0.337,0.002 0.319,0.004C0.3,0.007 0.282,0.008 0.264,0.008C0.232,0.008 0.202,0.002 0.173,-0.01C0.144,-0.022 0.119,-0.039 0.097,-0.062C0.075,-0.085 0.058,-0.113 0.045,-0.147C0.032,-0.18 0.026,-0.218 0.026,-0.261C0.026,-0.298 0.032,-0.333 0.043,-0.365C0.054,-0.398 0.07,-0.426 0.092,-0.45C0.114,-0.474 0.141,-0.492 0.173,-0.506C0.205,-0.52 0.243,-0.527 0.285,-0.527C0.326,-0.527 0.361,-0.52 0.392,-0.507C0.423,-0.494 0.45,-0.475 0.475,-0.45L0.434,-0.396Z" style="fill-rule:nonzero;"/>
                </g>
                <g transform="matrix(12,0,0,12,900.738,456.524)">
                    <path d="M0.291,-0.527C0.33,-0.527 0.366,-0.52 0.399,-0.508C0.431,-0.496 0.459,-0.478 0.482,-0.455C0.505,-0.432 0.523,-0.404 0.536,-0.371C0.549,-0.338 0.555,-0.302 0.555,-0.261C0.555,-0.219 0.549,-0.182 0.536,-0.149C0.523,-0.116 0.505,-0.087 0.482,-0.064C0.459,-0.041 0.431,-0.023 0.399,-0.011C0.366,0.002 0.33,0.008 0.291,0.008C0.251,0.008 0.215,0.002 0.183,-0.011C0.15,-0.023 0.122,-0.041 0.099,-0.064C0.075,-0.087 0.057,-0.116 0.044,-0.149C0.031,-0.182 0.025,-0.219 0.025,-0.261C0.025,-0.302 0.031,-0.338 0.044,-0.371C0.057,-0.404 0.075,-0.432 0.099,-0.455C0.122,-0.478 0.15,-0.496 0.183,-0.508C0.215,-0.52 0.251,-0.527 0.291,-0.527ZM0.291,-0.107C0.327,-0.107 0.353,-0.12 0.37,-0.145C0.387,-0.17 0.395,-0.208 0.395,-0.26C0.395,-0.311 0.387,-0.349 0.37,-0.374C0.353,-0.399 0.327,-0.412 0.291,-0.412C0.254,-0.412 0.228,-0.399 0.211,-0.374C0.194,-0.349 0.185,-0.311 0.185,-0.26C0.185,-0.208 0.194,-0.17 0.211,-0.145C0.228,-0.12 0.254,-0.107 0.291,-0.107Z" style="fill-rule:nonzero;"/>
                </g>
                <g transform="matrix(12,0,0,12,907.578,456.524)">
                    <path d="M0.06,-0L0.06,-0.519L0.156,-0.519C0.166,-0.519 0.174,-0.516 0.18,-0.512C0.187,-0.508 0.191,-0.501 0.194,-0.493L0.203,-0.463C0.213,-0.472 0.223,-0.481 0.234,-0.489C0.245,-0.497 0.256,-0.503 0.268,-0.509C0.28,-0.514 0.294,-0.519 0.308,-0.522C0.322,-0.525 0.337,-0.527 0.354,-0.527C0.382,-0.527 0.407,-0.522 0.429,-0.512C0.451,-0.502 0.47,-0.488 0.485,-0.471C0.5,-0.453 0.511,-0.432 0.519,-0.408C0.526,-0.384 0.53,-0.358 0.53,-0.33L0.53,-0L0.375,-0L0.375,-0.33C0.375,-0.355 0.369,-0.375 0.358,-0.389C0.346,-0.403 0.329,-0.41 0.306,-0.41C0.289,-0.41 0.273,-0.406 0.258,-0.399C0.243,-0.392 0.229,-0.382 0.215,-0.37L0.215,-0L0.06,-0Z" style="fill-rule:nonzero;"/>
                </g>
                <g transform="matrix(12,0,0,12,914.418,456.524)">
                    <path d="M0.03,-0.079C0.03,-0.091 0.032,-0.102 0.037,-0.112C0.041,-0.122 0.047,-0.131 0.055,-0.139C0.063,-0.147 0.072,-0.153 0.083,-0.157C0.094,-0.162 0.105,-0.164 0.118,-0.164C0.13,-0.164 0.142,-0.162 0.153,-0.157C0.163,-0.153 0.173,-0.147 0.181,-0.139C0.189,-0.131 0.195,-0.122 0.199,-0.112C0.204,-0.102 0.206,-0.091 0.206,-0.079C0.206,-0.067 0.204,-0.055 0.199,-0.045C0.195,-0.034 0.189,-0.025 0.181,-0.018C0.173,-0.01 0.163,-0.004 0.153,0.001C0.142,0.005 0.13,0.007 0.118,0.007C0.105,0.007 0.094,0.005 0.083,0.001C0.072,-0.004 0.063,-0.01 0.055,-0.018C0.047,-0.025 0.041,-0.034 0.037,-0.045C0.032,-0.055 0.03,-0.067 0.03,-0.079Z" style="fill-rule:nonzero;"/>
                </g>
            </g>
            <g transform="matrix(0.572447,0,0,0.572447,441.412,364.068)">
                <path d="M218.92,336.39C253.81,301.5 263.12,276.69 272.97,250.39C283.58,222.1 294.56,192.85 334.34,153.05C374.12,113.25 403.39,102.28 431.69,91.67C455.57,82.67 478.33,73.99 508.48,46.3L470.81,8.91C459.984,-1.745 442.842,-2.953 430.63,6.08C416.99,16.18 405.48,20.47 389.63,26.38C247,79.52 209.26,191.29 200.65,214.1C170.9,292.93 111.1,308.78 101.93,312.19C77.07,321.45 47.2,332.57 10.86,362.55C-3,374 -3.63,395 9.07,407.61L44.83,443.12C80,410.52 107,400.15 133,390.39C159.27,380.55 184.06,371.27 218.92,336.39ZM566.92,104.39L531.17,68.88C495.98,101.51 468.99,111.88 442.92,121.67C416.66,131.52 391.86,140.83 356.97,175.67C322.08,210.51 312.78,235.36 302.97,261.67C292.33,290 281.34,319.22 241.55,359C201.76,398.78 172.55,409.73 144.25,420.32C120.39,429.32 97.64,437.98 67.53,465.65L105.21,503.08C116.038,513.732 133.18,514.935 145.39,505.9C158.99,495.84 170.48,491.56 186.33,485.66C328.53,432.66 366.33,321.56 375.27,297.97C405,219.18 464.8,203.3 474,199.86C498.87,190.59 528.74,179.46 565.11,149.45C579,138.05 579.63,117 566.93,104.4L566.92,104.39Z" style="fill:rgb(255,70,70);fill-rule:nonzero;"/>
            </g>
            <g transform="matrix(7.12229,0,0,7.01419,-4933.41,-2662.82)">
                <g transform="matrix(12,0,0,12,880.926,456.524)">
                    <path d="M0.073,-0L0.073,-0.723L0.323,-0.723C0.37,-0.723 0.41,-0.719 0.444,-0.71C0.477,-0.701 0.505,-0.688 0.526,-0.671C0.548,-0.654 0.564,-0.634 0.574,-0.611C0.584,-0.587 0.589,-0.56 0.589,-0.531C0.589,-0.514 0.586,-0.497 0.581,-0.482C0.576,-0.466 0.568,-0.452 0.558,-0.438C0.547,-0.425 0.534,-0.413 0.518,-0.402C0.502,-0.391 0.482,-0.381 0.46,-0.374C0.559,-0.351 0.609,-0.298 0.609,-0.213C0.609,-0.182 0.603,-0.154 0.592,-0.128C0.58,-0.101 0.563,-0.079 0.541,-0.06C0.518,-0.041 0.491,-0.027 0.458,-0.016C0.425,-0.005 0.388,-0 0.346,-0L0.073,-0ZM0.208,-0.317L0.208,-0.105L0.344,-0.105C0.369,-0.105 0.39,-0.108 0.407,-0.114C0.424,-0.12 0.437,-0.128 0.447,-0.138C0.457,-0.148 0.465,-0.16 0.469,-0.173C0.474,-0.186 0.476,-0.201 0.476,-0.216C0.476,-0.231 0.474,-0.245 0.469,-0.258C0.464,-0.27 0.456,-0.281 0.445,-0.29C0.434,-0.299 0.421,-0.305 0.404,-0.31C0.387,-0.315 0.367,-0.317 0.344,-0.317L0.208,-0.317ZM0.208,-0.41L0.315,-0.41C0.361,-0.41 0.395,-0.418 0.419,-0.435C0.443,-0.452 0.455,-0.478 0.455,-0.515C0.455,-0.552 0.444,-0.579 0.423,-0.595C0.401,-0.611 0.368,-0.619 0.323,-0.619L0.208,-0.619L0.208,-0.41Z" style="fill:rgb(195,198,201);fill-rule:nonzero;"/>
                </g>
                <g transform="matrix(12,0,0,12,888.624,456.524)">
                    <path d="M0.278,-0.521C0.31,-0.521 0.34,-0.516 0.367,-0.506C0.394,-0.495 0.418,-0.48 0.438,-0.46C0.457,-0.44 0.472,-0.416 0.484,-0.387C0.495,-0.358 0.5,-0.326 0.5,-0.289C0.5,-0.279 0.5,-0.271 0.499,-0.265C0.498,-0.259 0.496,-0.254 0.494,-0.251C0.492,-0.247 0.489,-0.245 0.486,-0.243C0.482,-0.242 0.477,-0.241 0.472,-0.241L0.155,-0.241C0.158,-0.188 0.172,-0.15 0.197,-0.125C0.222,-0.1 0.254,-0.088 0.295,-0.088C0.315,-0.088 0.332,-0.09 0.347,-0.095C0.361,-0.1 0.374,-0.105 0.385,-0.111C0.396,-0.116 0.405,-0.121 0.413,-0.126C0.421,-0.131 0.429,-0.133 0.437,-0.133C0.442,-0.133 0.446,-0.132 0.45,-0.13C0.454,-0.128 0.457,-0.125 0.46,-0.122L0.496,-0.077C0.482,-0.061 0.467,-0.047 0.45,-0.036C0.432,-0.025 0.415,-0.017 0.396,-0.01C0.378,-0.004 0.359,0.001 0.34,0.004C0.321,0.006 0.302,0.008 0.284,0.008C0.248,0.008 0.215,0.002 0.185,-0.01C0.154,-0.022 0.127,-0.04 0.105,-0.063C0.082,-0.086 0.064,-0.115 0.051,-0.149C0.038,-0.183 0.032,-0.223 0.032,-0.268C0.032,-0.303 0.037,-0.335 0.049,-0.366C0.06,-0.397 0.076,-0.424 0.097,-0.447C0.118,-0.47 0.144,-0.488 0.175,-0.501C0.205,-0.514 0.24,-0.521 0.278,-0.521ZM0.281,-0.433C0.245,-0.432 0.216,-0.422 0.196,-0.402C0.176,-0.382 0.163,-0.353 0.157,-0.316L0.389,-0.316C0.389,-0.332 0.387,-0.347 0.383,-0.361C0.378,-0.375 0.372,-0.387 0.363,-0.398C0.354,-0.409 0.342,-0.417 0.329,-0.423C0.315,-0.429 0.299,-0.432 0.281,-0.433Z" style="fill:rgb(195,198,201);fill-rule:nonzero;"/>
                </g>
                <g transform="matrix(12,0,0,12,894.918,456.524)">
                    <path d="M0.235,0.008C0.19,0.008 0.156,-0.005 0.132,-0.03C0.108,-0.055 0.096,-0.09 0.096,-0.134L0.096,-0.421L0.044,-0.421C0.037,-0.42 0.032,-0.423 0.027,-0.427C0.022,-0.431 0.02,-0.438 0.02,-0.447L0.02,-0.496L0.102,-0.509L0.128,-0.649C0.129,-0.656 0.132,-0.661 0.137,-0.665C0.142,-0.668 0.148,-0.67 0.156,-0.67L0.22,-0.67L0.22,-0.509L0.355,-0.509L0.355,-0.421L0.22,-0.421L0.22,-0.143C0.22,-0.127 0.224,-0.114 0.232,-0.105C0.24,-0.096 0.25,-0.091 0.264,-0.092C0.271,-0.091 0.278,-0.092 0.283,-0.094C0.288,-0.096 0.292,-0.098 0.296,-0.1C0.3,-0.102 0.304,-0.104 0.307,-0.106C0.31,-0.108 0.313,-0.109 0.316,-0.109C0.319,-0.109 0.322,-0.108 0.325,-0.106C0.327,-0.104 0.329,-0.101 0.332,-0.098L0.369,-0.038C0.351,-0.023 0.33,-0.011 0.307,-0.004C0.284,0.004 0.26,0.008 0.235,0.008Z" style="fill:rgb(195,198,201);fill-rule:nonzero;"/>
                </g>
                <g transform="matrix(12,0,0,12,899.442,456.524)">
                    <path d="M0.468,-0L0.413,-0C0.401,-0 0.392,-0.002 0.385,-0.005C0.378,-0.009 0.373,-0.016 0.37,-0.027L0.359,-0.063C0.346,-0.051 0.333,-0.041 0.321,-0.032C0.308,-0.023 0.295,-0.016 0.282,-0.01C0.269,-0.004 0.255,0.001 0.24,0.004C0.225,0.007 0.208,0.008 0.19,0.008C0.168,0.008 0.148,0.005 0.13,-0.001C0.111,-0.007 0.095,-0.015 0.082,-0.027C0.069,-0.039 0.059,-0.053 0.052,-0.071C0.044,-0.088 0.041,-0.108 0.041,-0.131C0.041,-0.15 0.046,-0.169 0.056,-0.188C0.066,-0.207 0.083,-0.224 0.107,-0.239C0.13,-0.254 0.162,-0.267 0.201,-0.277C0.24,-0.287 0.289,-0.293 0.348,-0.294L0.348,-0.324C0.347,-0.358 0.34,-0.384 0.326,-0.4C0.311,-0.417 0.29,-0.425 0.263,-0.425C0.243,-0.425 0.226,-0.423 0.213,-0.418C0.199,-0.413 0.188,-0.408 0.178,-0.402C0.168,-0.396 0.159,-0.391 0.151,-0.387C0.142,-0.382 0.133,-0.38 0.123,-0.38C0.115,-0.38 0.108,-0.382 0.102,-0.386C0.095,-0.39 0.091,-0.396 0.087,-0.402L0.065,-0.442C0.124,-0.496 0.195,-0.523 0.278,-0.523C0.308,-0.523 0.335,-0.518 0.358,-0.508C0.382,-0.498 0.402,-0.484 0.418,-0.467C0.434,-0.449 0.447,-0.428 0.455,-0.404C0.464,-0.38 0.468,-0.353 0.468,-0.324L0.468,-0ZM0.228,-0.077C0.241,-0.077 0.252,-0.078 0.263,-0.081C0.274,-0.083 0.284,-0.086 0.293,-0.091C0.303,-0.096 0.312,-0.101 0.321,-0.108C0.33,-0.115 0.339,-0.123 0.348,-0.133L0.348,-0.219C0.312,-0.217 0.281,-0.214 0.257,-0.21C0.233,-0.205 0.214,-0.2 0.199,-0.193C0.184,-0.186 0.174,-0.177 0.168,-0.168C0.162,-0.159 0.159,-0.149 0.159,-0.138C0.159,-0.116 0.165,-0.1 0.178,-0.091C0.191,-0.082 0.207,-0.077 0.228,-0.077Z" style="fill:rgb(195,198,201);fill-rule:nonzero;"/>
                </g>
            </g>
        </g>
    </g>
</svg>
